Sarah Tyler returns to her troubled family home in the isolated countryside, for a much put-off visit. As a storm rages outside, Sarah, her family and friends shore up for the night, cut off from the outside world. But something comes out of the driving rain and darkness. Something that holds a dark secret so devastating that, in one night, it could wipe out the entire family.
 
http://www.imdb.com/title/tt1411232/

Subtitles (srt) : Dutch.

Covers included.

Het is volle maan en hoog in de donkere wolken onweert het. Sarah Tyler keert terug haar familiehuis, dat op een afgelegen plattelandsgebied ligt. De storm is nog niet opgehouden, dus Sarah, haar vrienden en haar familie, maken zich klaar voor de nacht. Maar dan verschijnt er iets uit de donkere nacht, iets met een duister geheim. Sarah en de rest moeten nu zien te overleven.
 
http://www.moviemeter.nl/film/62436

Ondertitels (srt) : Nederlands.

Hoesjes bijgevoegd.

General
Complete name                    : 13Hrs-AC3-XviD-BRRip[Eng]2010 2Lions-Team\13Hrs-AC3-XviD-BRRip[Eng]2010 2Lions-Team.avi
Format                           : AVI
Format/Info                      : Audio Video Interleave
File size                        : 1.12 GiB
Duration                         : 1h 24mn
Overall bit rate                 : 1 881 Kbps
Writing application              : VirtualDubMod 1.5.4.1 (build 2178/release)
Writing library                  : VirtualDubMod build 2178/release
Source                           : 13Hrs.2010.1080p.BluRay.x264-MeTH

Video
ID                               : 0
Format                           : MPEG-4 Visual
Format profile                   : Simple@L3
Format settings, BVOP            : No
Format settings, QPel            : No
Format settings, GMC             : No warppoints
Format settings, Matrix          : Default (H.263)
Codec ID                         : XVID
Codec ID/Hint                    : XviD
Duration                         : 1h 24mn
Bit rate                         : 1 424 Kbps
Width                            : 720 pixels
Height                           : 400 pixels
Display aspect ratio             : 16:9
Frame rate                       : 23.976 fps
Resolution                       : 8 bits
Colorimetry                      : 4:2:0
Scan type                        : Progressive
Bits/(Pixel*Frame)               : 0.206
Stream size                      : 864 MiB (76%)
Writing library                  : XviD 1.1.2 (UTC 2006-11-01)

Audio
ID                               : 1
Format                           : AC-3
Format/Info                      : Audio Coding 3
Codec ID                         : 2000
Duration                         : 1h 24mn
Bit rate mode                    : Constant
Bit rate                         : 448 Kbps
Channel(s)                       : 6 channels
Channel positions                : Front: L C R, Surround: L R, LFE
Sampling rate                    : 48.0 KHz
Stream size                      : 272 MiB (24%)
Alignment                        : Split accross interleaves
Interleave, duration             : 42 ms (1.00 video frame)
Interleave, preload duration     : 500 ms

Thanks to Fast Gollums Twilight Release Team for the source, and Dutch subs.Nice job peeps!
 
Brought to you by Gollum

DON T HIT AND RUN Niet gelijk afhaken als de FILM binnen is blijf seeden. 

Don`t quit after you finished the download, but keep seeding

There are fake torrents from uploaders who use our team name.
Those are not ours, or members from our team.
We 2Lions-Team are not responsible for the fake posts on our name

Wij 2Lions-Team zijn niet verantwoordelijk voor die zieke FAKE posten die op onze naam worden gedaan

Please check our site !!!

to the fakers , get a life !!!